<?xml version="1.0" encoding="utf-8"?>
<!-- Generator: Adobe Illustrator 19.0.0, SVG Export Plug-In . SVG Version: 6.00 Build 0)  -->
<svg version="1.1" id="Слой_1" xmlns="http://www.w3.org/2000/svg" xmlns:xlink="http://www.w3.org/1999/xlink" x="0px" y="0px"
	 viewBox="0 0 39 39" style="enable-background:new 0 0 39 39;" xml:space="preserve">
<style type="text/css">
	.st0{fill:#777777;}
</style>
<path id="XMLID_28_" class="st0" d="M36,39H3c-1.7,0-3-1.4-3-3V3c0-1.6,1.3-3,3-3h33c1.7,0,3,1.3,3,3v33C39,37.6,37.7,39,36,39z"/>
<path id="VK" d="M20.5,27.5c0.9,0,0.9-1.3,0.9-1.8c0-0.9,0.9-1.8,1.9-1.8s2.5,1.5,3.7,2.7c0.9,0.9,0.9,0.9,1.9,0.9s2.8,0,2.8,0
	s1.9-0.1,1.9-1.8c0-0.6-0.6-1.5-2.8-3.6c-1.9-1.8-2.8-0.9,0-4.4c1.7-2.2,3-4.2,2.8-4.7c-0.2-0.5-5-1.4-5.5-0.6
	c-1.9,2.7-2.2,3.3-2.8,4.4c-0.9,1.8-1,2.7-1.9,2.7c-0.8,0-0.9-1.7-0.9-2.7c0-2.9,0.4-5-0.9-5.3c0,0-1.9,0-2.8,0
	c-1.5,0-2.8,0.9-2.8,0.9s-1.2,0.9-0.9,0.9c0.3,0,1.9-0.4,1.9,0.9c0,0.9,0,1.8,0,1.8s0,3.6-0.9,3.6c-0.9,0-2.8-3.6-4.7-6.2
	c-0.7-1-0.9-0.9-1.9-0.9c-1,0-1.9,0-2.8,0c-0.9,0-1.1,0.6-0.9,0.9c1.9,4.4,3.2,7.2,6.7,10.7c3.2,3.2,5.4,3.4,7.2,3.5
	C20,27.5,19.5,27.5,20.5,27.5z"/>
</svg>
