<?xml version="1.0" encoding="utf-8"?>
<!-- Generator: Adobe Illustrator 19.0.0, SVG Export Plug-In . SVG Version: 6.00 Build 0)  -->
<svg version="1.1" id="Слой_1" xmlns="http://www.w3.org/2000/svg" xmlns:xlink="http://www.w3.org/1999/xlink" x="0px" y="0px"
	 viewBox="0 0 39 39" style="enable-background:new 0 0 39 39;" xml:space="preserve">
<style type="text/css">
	.st0{fill:#5B5B5B;}
</style>
<path id="XMLID_16_" class="st0" d="M36,39H3c-1.6,0-3-1.3-3-3V3c0-1.6,1.4-3,3-3h33c1.7,0,3,1.4,3,3v33C39,37.7,37.7,39,36,39z"/>
<g id="XMLID_15_">
	<path id="n" d="M15.3,14.6h5.9v2.9l0,0c0.8-1.5,2.9-2.9,5.9-2.9c6.2,0,6.9,3.6,6.9,8.8v10.8h-5.9v-9.8c0-2.3,0.2-4.9-2.9-4.9
		c-3.9,0-3.9,2.4-3.9,4.9v9.8h-5.9V14.6z"/>
	<rect id="_x7C_" x="5.5" y="14.6" width="5.9" height="19.7"/>
	<circle id="_x28____x29_" cx="8.4" cy="8.2" r="3.4"/>
</g>
</svg>
