<?xml version="1.0" encoding="utf-8"?>
<!-- Generator: Adobe Illustrator 19.0.0, SVG Export Plug-In . SVG Version: 6.00 Build 0)  -->
<svg version="1.1" id="Слой_1" xmlns="http://www.w3.org/2000/svg" xmlns:xlink="http://www.w3.org/1999/xlink" x="0px" y="0px"
	 viewBox="0 0 39 39" style="enable-background:new 0 0 39 39;" xml:space="preserve">
<style type="text/css">
	.st0{fill:#696969;}
</style>
<path id="XMLID_1_" class="st0" d="M36,39H3c-1.7,0-3-1.4-3-3V3c0-1.7,1.4-3,3-3h33c1.7,0,3,1.4,3,3v33C39,37.6,37.6,39,36,39z"/>
<g>
	<path id="f" d="M32.9,23.1l1.1-5.6l-5.6,0V13c0-1.7,0.9-2.2,3.4-2.2H34V5.1c0,0-2.3,0-4.5,0c-4.6,0-7.9,2.7-7.9,7.9v4.5H16v5.6h5.6
		v15.8h6.8V23.1H32.9z"/>
</g>
</svg>
