<?xml version="1.0" encoding="utf-8"?>
<!-- Generator: Adobe Illustrator 19.0.0, SVG Export Plug-In . SVG Version: 6.00 Build 0)  -->
<svg version="1.1" xmlns="http://www.w3.org/2000/svg" xmlns:xlink="http://www.w3.org/1999/xlink" x="0px" y="0px"
	 viewBox="0 0 55 56">
<path d="M51.3,5H3.8C1.8,5,0.3,6.4,0.3,8.3l0,39.6C0.3,49,1.1,50,2.2,50h0.6c0.4,0,0.7-0.1,0.7,0.4v3.1
	c0,1.4,1.3,2.5,2.6,2.5h5.9c1.4,0,2.4-1.1,2.4-2.5v-3.1c0-0.4,0.4-0.4,0.9-0.4h24.2c0.4,0,0.9-0.1,0.9,0.4v3.1c0,1.4,1,2.5,2.4,2.5
	h5.9c1.4,0,2.6-1.1,2.6-2.5v-3.1c0-0.4,0.2-0.4,0.7-0.4h0.6c1.1,0,1.9-1.1,1.9-2.2l0-39.4C54.7,6.5,53.2,5,51.3,5z M2.5,8.9
	c0-1,1.1-1.9,2.1-1.9h45.7c1,0,2.1,0.9,2.1,1.9v3.4c0,0.5-0.7,0.7-1.1,0.7H3.6c-0.5,0-1.1-0.2-1.1-0.7V8.9z M25.5,17.2v13.5
	c0,0.5,0,1.3-0.4,1.3H3.6c-0.5,0-1.1-0.9-1.1-1.3V17.2c0-0.5,0.7-1.2,1.1-1.2h21.5C25.5,16,25.5,16.7,25.5,17.2z M29.5,30.7V17.2
	c0-0.5,0-1.2,0.4-1.2h21.5c0.5,0,1.1,0.7,1.1,1.2v13.5c0,0.5-0.7,1.3-1.1,1.3H29.9C29.5,32,29.5,31.1,29.5,30.7z M13.5,39.6
	c0,0.8-0.6,1.4-1.4,1.4H5.9c-0.8,0-1.4-0.6-1.4-1.4v-1.2c0-0.8,0.6-1.4,1.4-1.4h6.2c0.8,0,1.4,0.6,1.4,1.4V39.6z M35.5,44.2
	c0,0.9-0.3,1.8-1.2,1.8H20.7c-0.9,0-1.2-1-1.2-1.8v-2.9c0-0.9,0.3-1.3,1.2-1.3h13.6c0.9,0,1.2,0.4,1.2,1.3V44.2z M50.5,39.6
	c0,0.8-0.6,1.4-1.4,1.4h-6.2c-0.8,0-1.4-0.6-1.4-1.4v-1.2c0-0.8,0.6-1.4,1.4-1.4h6.2c0.8,0,1.4,0.6,1.4,1.4V39.6z"/>
</svg>
