<?xml version="1.0" encoding="utf-8"?>
<!-- Generator: Adobe Illustrator 19.0.0, SVG Export Plug-In . SVG Version: 6.00 Build 0)  -->
<svg version="1.1" id="Слой_1" xmlns="http://www.w3.org/2000/svg" xmlns:xlink="http://www.w3.org/1999/xlink" x="0px" y="0px"
	 viewBox="0 0 30 30" style="enable-background:new 0 0 30 30;" xml:space="preserve">
<path id="XMLID_67_" d="M11.1,18.9c2.1,2,4.7,3.6,6.8,3.4c2.1-0.5,2.1-2.6,4.3-3.1c3.3-0.7,8,2.8,7.8,5.6c-0.2,3-6.1,5.2-10.7,5.2
	c-4.8,0-9.6-2.5-13.3-6C8.4,21.6,8.6,21.4,11.1,18.9z M11.1,18.9c-2-2.1-3.6-4.7-3.4-6.8c0.5-2.1,2.6-2.1,3.1-4.3
	C11.5,4.5,8-0.2,5.2,0C2.2,0.2,0,6.1,0,10.7c0,4.8,2.5,9.6,6,13.3C8.4,21.6,8.6,21.4,11.1,18.9z"/>
</svg>
