<svg width="49" height="82" xmlns="http://www.w3.org/2000/svg">
  <g transform="matrix(0.125,0,0,-0.125,0,115.537) ">
   <path d="m191.43298,812.34705c38.16501,0 69.19998,-31.03998 69.19998,-69.20398c0,-38.125 -31.03496,-69.16803 -69.19998,-69.16803c-38.125,0 -69.19901,31.04303 -69.19901,69.16803c0,38.164 31.07401,69.20398 69.19901,69.20398zm0,-236.28198c92.18802,0 167.129,74.94196 167.129,167.078c0,92.17999 -74.94098,167.15295 -167.129,167.15295c-92.16699,0 -167.12799,-74.97296 -167.12799,-167.15295c0,-92.13605 74.96097,-167.078 167.12799,-167.078"/>
   <path d="m259.05099,439.72504c34.02301,7.754 66.836,21.211 97.04999,40.20001c22.87201,14.414 29.76599,44.64398 15.35199,67.51501c-14.39499,22.922 -44.60901,29.81702 -67.51996,15.40302c-68.457,-43.05505 -156.60101,-43.03613 -225.01901,0c-22.91,14.414 -53.125,7.51898 -67.5,-15.40302c-14.414,-22.88599 -7.539,-53.10101 15.332,-67.51501c30.215,-18.96503 63.02701,-32.44601 97.05098,-40.20001l-93.43799,-93.43298c-19.101,-19.121 -19.101,-50.117 0.01999,-69.23801c9.57002,-9.55099 22.09001,-14.33603 34.60899,-14.33603c12.539,0 25.078,4.78503 34.64899,14.33603l91.77701,91.81601l91.85501,-91.81601c19.10199,-19.12201 50.09796,-19.12201 69.21899,0c19.14096,19.121 19.14096,50.13199 0,69.23801l-93.43704,93.43298"/>
 </g>
</svg>