<?xml version="1.0" encoding="utf-8"?>
<!-- Generator: Adobe Illustrator 19.0.0, SVG Export Plug-In . SVG Version: 6.00 Build 0)  -->
<svg version="1.1" xmlns="http://www.w3.org/2000/svg" xmlns:xlink="http://www.w3.org/1999/xlink" x="0px" y="0px"
	 viewBox="0 0 55 41">
<path d="M30,1C12.4-0.6-1,14.4,0.6,31.4c0.3,3.1,1.1,6,2.2,8.7C3,40.6,3.6,41,4.2,41h46.6c0.6,0,1.2-0.4,1.4-0.9
	c2-4.6,2.9-9.9,2.1-15.6C52.5,12,42.5,2.1,30,1z M15.6,37.6l4.3-10.9c0.1-0.2,0.4-0.3,0.5,0c1.2,1.8,5.5,8.3,6.8,10.2
	c0.2,0.2,0.5,0.2,0.6,0c1.2-1.9,5.5-8.4,6.8-10.2c0.1-0.2,0.4-0.2,0.5,0.1l4.3,10.9c0.1,0.2-0.1,0.4-0.3,0.4H15.9
	C15.7,38,15.5,37.8,15.6,37.6z M49,38h-2.8c-0.4,0-0.7-0.2-0.8-0.5l-9.2-23.9c-0.1-0.4-0.6-0.4-0.8,0l-7.6,13.2
	c-0.1,0.2-0.5,0.2-0.6,0l-7.6-13.2c-0.2-0.4-0.7-0.3-0.8,0.1L9.6,37.5C9.5,37.8,9.2,38,8.8,38H6c-0.6,0-1.1-0.3-1.3-0.9
	c-0.7-2.1-1.1-4.2-1.2-6.5C2.9,18,13.3,5.4,26.1,4.7c15.1-0.9,26.5,12.1,25.3,26.7c-0.2,2-0.6,3.9-1.2,5.8C50.1,37.7,49.5,38,49,38z
	"/>
</svg>
