<?xml version="1.0" encoding="utf-8"?>
<!-- Generator: Adobe Illustrator 19.0.0, SVG Export Plug-In . SVG Version: 6.00 Build 0)  -->
<svg version="1.1" xmlns="http://www.w3.org/2000/svg" xmlns:xlink="http://www.w3.org/1999/xlink" x="0px" y="0px"
	 viewBox="0 0 55 56">
<path d="M51,28.7l-4.1-12c-0.4-1-1.2-1.7-2.2-1.7H10.4c-1.1,0-1.8,0.6-2.2,1.7L4,28.8c-0.5,2.1-0.7,2.3-0.7,4.5
	l0.4,14.4C3.7,48.4,4.3,49,5,49h0.8c0.5,0,0.7,0.3,0.7,0.7v4.9C6.5,55.4,7.3,56,8,56h4.3c0.8,0,1.2-0.6,1.2-1.4v-4.9
	c0-0.5,0.6-0.7,1.1-0.7h25.9c0.5,0,1.1,0.3,1.1,0.7v4.9c0,0.8,0.4,1.4,1.1,1.4H47c0.8,0,1.5-0.6,1.5-1.4v-4.9c0-0.5,0.2-0.7,0.7-0.7
	H50c0.7,0,1.3-0.6,1.3-1.4l0.4-14.4C51.7,31.1,51.5,30.8,51,28.7z M29.4,17H44c0.6,0,0.8,0.3,1.2,0.8L49,30.5
	c0.2,0.8-0.4,1.5-1.2,1.5H29.4c-0.5,0-0.9-0.6-0.9-1.1V17.7C28.5,17.2,28.9,17,29.4,17z M11,17h14.6c0.5,0,0.9,0.2,0.9,0.7v13.2
	c0,0.5-0.4,1.1-0.9,1.1H7.2c-0.8,0-1.4-0.8-1.2-1.6l3.9-12.6C10.2,17.3,10.5,17,11,17z M16.5,40c0,0.5-0.4,1-1,1H8.5
	c-0.5,0-1-0.4-1-1V39c0-0.5,0.4-1,1-1h7.1c0.5,0,1,0.4,1,1V40z M47.5,40c0,0.5-0.4,1-1,1h-7.1c-0.5,0-1-0.4-1-1V39c0-0.5,0.4-1,1-1
	h7.1c0.5,0,1,0.4,1,1V40z"/>
</svg>
