<?xml version="1.0" encoding="utf-8"?>
<!-- Generator: Adobe Illustrator 19.0.0, SVG Export Plug-In . SVG Version: 6.00 Build 0)  -->
<svg version="1.1" xmlns="http://www.w3.org/2000/svg" xmlns:xlink="http://www.w3.org/1999/xlink" x="0px" y="0px"
	 viewBox="0 0 55 56">
<g>
	<path d="M35.5,5.5c-0.1,4.5-1.9,5.7-4.2,5.7s-5.1-3.5-5.1-6.6s3.3-4.3,5.6-4.3S35.6,2.4,35.5,5.5z"/>
	<path d="M33.6,14.8c0.3,2.4-0.2,8.9-1,12.3c-0.7,3.4-1.1,6.1-1.1,7.6c0.1,1.5,1.2,6.4,2.1,9.5
		c0.9,3.1,1.8,8.4,1.8,8.4s1.6,0.9,2.7,1c1.1,0.1,1.8,0.4,2,1.1c0.2,0.7,0.2,1.4,0.2,1.4h-9.8c0,0-0.4-0.4-0.5-2.6
		c-0.1-1.3-1.2-5-1.8-6.8c-0.6-1.8-4.4-10.8-4.7-12.4c0,0,0-4.3,0.4-6.9c0.4-2.6,0-4.2,0-4.2s1.9-1.8,3.1-2.6
		c2.3-1.5,1.4-1.8,1.4-1.8s-0.6-0.7-3.3,1.4s-4.7,4.9-5.9,7.5s-0.4,4.9-1.9,5.5c-1.5,0.7-3,0.3-3.6-0.8c-0.7-1.1,0-2.7,0.9-4
		c0.9-1.3,2.3-5.7,3.5-7.5c1.2-1.8,6.7-8.3,7.8-8.4C28.8,12,33.3,12.1,33.6,14.8z"/>
	<path d="M34.5,18.9c0,0,0.1,3.9-0.1,5.6s-0.9,4.6-0.9,4.6s2.7,1.5,3.3,2.1c0.7,0.6,1.1,1.9,2.3,2.1
		c1.2,0.1,2.9-1.3,2.4-3c-0.6-1.8-4.2-2.7-5.5-5.7c-0.4-0.9-0.7-2.9-0.7-4.3C35.3,19.2,35.1,18.8,34.5,18.9z"/>
	<path d="M23,37c0,0,1.4,3.4,2,4.9s1.5,3.1,1,3.7c-0.9,1.1-5.2,6.3-5.1,6.9c0.1,0.6,2,0.9,3.2,1.2
		c1.2,0.3,0.8,2.4,0.8,2.4h-10c0,0-1-1.1,0.2-3.5c0.5-1,2.9-4.7,3.7-6.6C19.5,44.1,23,37,23,37z"/>
</g>
</svg>
