<?xml version="1.0" encoding="utf-8"?>
<!-- Generator: Adobe Illustrator 19.0.0, SVG Export Plug-In . SVG Version: 6.00 Build 0)  -->
<svg version="1.1" id="Слой_1" xmlns="http://www.w3.org/2000/svg" xmlns:xlink="http://www.w3.org/1999/xlink" x="0px" y="0px"
	 viewBox="0 0 52 52" style="enable-background:new 0 0 52 52;" xml:space="preserve">
<path fill="white" d="M49.6,31.4c0.4-1.6,0.5-3.3,0.5-5.1c0-13.1-10.7-23.7-23.8-23.7c-1.4,0-2.8,0.1-4.1,0.3c-2.1-1.3-4.7-2.1-7.4-2.1
	C7.2,0.8,1,6.9,1,14.5c0,2.5,0.7,4.9,1.9,7c-0.3,1.5-0.5,3.1-0.5,4.8C2.4,39.4,13.1,50,26.3,50c1.5,0,2.9-0.1,4.4-0.4
	c1.9,1,4.2,1.6,6.5,1.6C44.8,51.2,51,45,51,37.4C51,35.3,50.5,33.2,49.6,31.4z M38.5,37.6c-1.1,1.6-2.7,2.8-4.8,3.7
	c-2.1,0.9-4.6,1.3-7.5,1.3c-3.4,0-6.3-0.6-8.5-1.8c-1.6-0.9-2.9-2-3.9-3.5s-1.5-2.9-1.5-4.3c0-0.9,0.3-1.6,1-2.2s1.5-0.9,2.5-0.9
	c0.8,0,1.5,0.2,2.1,0.7c0.5,0.5,1,1.2,1.4,2c0.4,1,0.9,1.8,1.4,2.4s1.1,1.1,2,1.5s2,0.6,3.5,0.6c2,0,3.6-0.4,4.8-1.2
	c1.2-0.8,1.8-1.8,1.8-3c0-0.9-0.3-1.7-0.9-2.3c-0.7-0.6-1.5-1.1-2.5-1.4c-1.1-0.3-2.6-0.7-4.4-1.1c-2.5-0.5-4.6-1.2-6.3-1.9
	c-1.7-0.7-3.1-1.7-4.1-3s-1.5-2.9-1.5-4.8c0-1.8,0.5-3.4,1.6-4.8c1.1-1.4,2.6-2.5,4.6-3.2s4.3-1.1,7-1.1c2.1,0,4,0.2,5.6,0.7
	s2.9,1.1,3.9,2c1,0.8,1.8,1.7,2.3,2.6c0.5,0.9,0.7,1.8,0.7,2.7c0,0.8-0.3,1.6-1,2.3c-0.7,0.7-1.5,1-2.4,1s-1.6-0.2-2.1-0.6
	c-0.4-0.4-0.9-1-1.4-1.9c-0.6-1.1-1.3-2-2.1-2.6s-2.1-0.9-4-0.9c-1.7,0-3.1,0.3-4.1,1c-1,0.6-1.5,1.4-1.5,2.3c0,0.5,0.2,1,0.5,1.4
	s0.8,0.8,1.4,1.1c0.6,0.3,1.3,0.6,1.9,0.7c0.7,0.2,1.8,0.5,3.3,0.8c1.9,0.4,3.7,0.9,5.3,1.4s3,1.1,4.1,1.9c1.1,0.7,2,1.7,2.7,2.8
	c0.6,1.1,1,2.5,1,4.2C40.2,34.3,39.6,36.1,38.5,37.6z"/>
</svg>
