<?xml version="1.0" encoding="utf-8"?>
<!-- Generator: Adobe Illustrator 19.0.0, SVG Export Plug-In . SVG Version: 6.00 Build 0)  -->
<svg version="1.1" id="Layer_1" xmlns="http://www.w3.org/2000/svg" xmlns:xlink="http://www.w3.org/1999/xlink" x="0px" y="0px"
	 viewBox="0 39 52 52" style="enable-background:new 0 39 52 52;" xml:space="preserve">
<g fill="white">
	<path d="M11.7,39.1c3.1-0.6,5.1,2.9,6.6,5.3c1.5,2.3,3.3,5,2.6,8.1c-0.4,1.7-1.9,2.6-3.1,3.6c-1.1,1-2.9,1.9-3.3,3.4
		c-0.7,2.5,0.8,5,1.8,6.5c2.1,3.3,4.7,6.3,8,9c1.6,1.3,3.8,3,6,2.6c3.3-0.7,4.2-4.7,7.8-5.3c3.4-0.5,5.7,2,7.7,3.6
		c1.9,1.6,4.9,3.7,4.7,6.4c-0.1,1.6-1.4,2.6-2.5,3.5c-1.1,1-2.1,2.1-3.2,2.8c-2.7,1.7-6,2.6-9.7,2.5c-3.7-0.1-6.6-1.4-9.3-2.8
		c-5.2-2.8-9.3-6.7-13.2-11c-3.8-4.3-7.4-9.4-9.3-15c-2.4-7-1.1-14.2,2.8-18.7c0.7-0.8,1.7-1.6,2.7-2.4
		C9.4,40.3,10.3,39.3,11.7,39.1z"/>
</g>
</svg>
