<?xml version="1.0" encoding="utf-8"?>
<!-- Generator: Adobe Illustrator 19.0.0, SVG Export Plug-In . SVG Version: 6.00 Build 0)  -->
<svg version="1.1" id="Слой_1" xmlns:sketch="http://www.bohemiancoding.com/sketch/ns"
	 xmlns="http://www.w3.org/2000/svg" xmlns:xlink="http://www.w3.org/1999/xlink" x="0px" y="0px" viewBox="-11 28 52 52"
	 style="enable-background:new -11 28 52 52;" xml:space="preserve">
<title></title>
<g fill="white" id="Icons_with_numbers">
	<g id="Group" transform="translate(-336.000000, 0.000000)">
		<path id="Shape" d="M357.4,55.8l18.4,15.8c-0.7,0.6-1.6,1-2.6,1h-44.5c-1,0-1.9-0.4-2.6-1l18.4-15.8l6.4,5.6L357.4,55.8z
			 M351,57.7l-24.8-21.3c0.7-0.6,1.6-1,2.6-1h44.5c1,0,1.9,0.4,2.6,1L351,57.7z M377,69.5l-17.9-15.3L377,38.7V69.5L377,69.5z
			 M325,69.5V38.7l17.9,15.6L325,69.5L325,69.5z"/>
	</g>
</g>
</svg>
