<svg xmlns="http://www.w3.org/2000/svg" x="0px" y="0px" viewBox="-305 348 20 110">

<g id="Layer_1" transform="translate(0, 6)">
	<linearGradient id="SVGID_1_" gradientUnits="userSpaceOnUse" x1="-810.7154" y1="639.6936" x2="-810.7154" y2="624.3238" gradientTransform="matrix(0 -1 -1 0 339.2326 -413.7404)">
		<stop  offset="0" style="stop-color:#2092BF"/>
		<stop  offset="1" style="stop-color:#176787"/>
	</linearGradient>

	<filter id="shadow" filterUnits="userSpaceOnUse" x="-305" y="343" width="100%" height="100%">
		<feGaussianBlur in="SourceAlpha" stdDeviation="2" result="blur"/>
		<feOffset in="blur" dx="0" dy="0" result="offsetBlr" />
		<feFlood flood-color="rgba(0,0,0,.8)"/>
		<feComposite operator="in" in2="offsetBlr" result="colBlur"/>
		<feMerge>
			<feMergeNode in="colBlur"/>
			<feMergeNode in="SourceGraphic"/>
		</feMerge>
	</filter>

	<path filter="url(#shadow)" fill="url(#SVGID_1_)" d="M-282.2,451.2c0-0.3-0.2-4.4-7.8-6.5c-5.2-1.4-10.5-2.8-10.5-10v-75.5c0-7.1,5.3-8.6,10.5-10 c7.7-2.1,7.8-6.2,7.8-6.5C-282.2,345.6-282.2,448.3-282.2,451.2z"/>

	<path fill="#FFFFFF" d="M-296.3,373.7l7.9,23l-7.9,23.2c-0.2,0.6-1,0.4-1-0.2v-45.8C-297.3,373.3-296.5,373.2-296.3,373.7z"/>

	<path fill="#CCCBCB" d="M-296.8,420.4c-0.3,0-0.5-0.2-0.5-0.5v-45.8c0-0.3,0.3-0.5,0.5-0.5s0.4,0.1,0.5,0.4l7.9,23l-7.9,23.2 C-296.4,420.3-296.6,420.4-296.8,420.4 M-296.8,420.9L-296.8,420.9c0.5,0,0.9-0.3,1-0.7l7.9-23.2c0-0.1,0-0.2,0-0.3l-7.9-23 c-0.1-0.4-0.5-0.7-1-0.7c-0.6,0-1.1,0.5-1.1,1.1v45.7C-297.9,420.4-297.4,420.9-296.8,420.9L-296.8,420.9z"/>
</g>
</svg>