<svg width="20" height="18" xmlns="http://www.w3.org/2000/svg">
 <!-- Created with SVG-edit - http://svg-edit.googlecode.com/ -->
 <g>
  <title>Layer 1</title>
  <path fill="black" d="m19.02271,17.672l-17.75461,0c-0.70038,0 -1.2681,-0.565 -1.2681,-1.26202l0,-12.62396c0,-0.69702 0.56772,-1.26105 1.2681,-1.26105l4.65002,0l0,-1.26398c0,-0.69702 0.56778,-1.26099 1.26828,-1.26099l5.91812,0c0.70038,0 1.2681,0.56396 1.2681,1.26099l0,1.26398l4.65009,0c0.70041,0 1.26822,0.56403 1.26822,1.26105l0,12.62396c0,0.69702 -0.56781,1.26202 -1.26822,1.26202zm-6.341,-15.98901l-5.0726,0l0,0.84198l5.0726,0l0,-0.84198zm5.07281,3.36603l-15.21811,0l0,10.099l15.21811,0l0,-10.099zm-10.14542,6.172c1.86771,0 3.38181,1.00397 3.38181,2.24298l-6.7637,0c0,-1.23901 1.5141,-2.24298 3.3819,-2.24298zm8.4545,-2.80603l-4.2272,0l0,-1.68298l4.2272,0l0,1.68298zm0,2.52399l-4.2272,0l0,-1.68201l4.2272,0l0,1.68201zm0,2.52502l-4.2272,0l0,-1.68201l4.2272,0l0,1.68201zm-8.4545,-2.24298c-0.9339,0 -1.69098,-1.005 -1.69098,-2.245c0,-1.23901 0.75708,-2.24402 1.69098,-2.24402c0.93381,0 1.69092,1.005 1.69092,2.24402c0,1.23999 -0.75711,2.245 -1.69092,2.245z"/>
 </g>
</svg>