<?xml version="1.0" encoding="UTF-8" standalone="yes"?>
<!-- Created with sK1/UniConvertor (http://sk1project.org/) -->
<svg xmlns="http://www.w3.org/2000/svg" xmlns:xlink="http://www.w3.org/1999/xlink"
  width="20" height="18">
<g>
<path d="m18.40579,9.09802l-0.11288,0l-2.07581,7.797c-0.15729,0.66003 -0.85181,1.19403 -1.55139,1.19403l-9.69852,0c-0.69958,0 -1.3942,-0.534 -1.55148,-1.19403l-2.07571,-7.797l-0.11279,0c-0.6778,0 -1.2272,-0.54901 -1.2272,-1.22498c0,-0.67804 0.54941,-1.22705 1.2272,-1.22705l0.7598,0l15.65881,0l0.75998,0c0.67761,0 1.22711,0.54901 1.22711,1.22705c0,0.67596 -0.5495,1.22498 -1.22711,1.22498l-0.00001,0zm-7.7713,7.35699l3.27209,0c0.45181,0 0.81802,-0.36597 0.81802,-0.81702c0,-0.45197 -0.36621,-0.81799 -0.81802,-0.81799l-3.27209,0l0,1.63501zm0,-3.27002l4.09012,0c0.45178,0 0.81799,-0.36597 0.81799,-0.81696c0,-0.45099 -0.36621,-0.81799 -0.81799,-0.81799l-4.09012,0l0,1.63495zm-1.63599,-4.90399l-4.90829,0c-0.45172,0 -0.81802,0.36603 -0.81802,0.81702c0,0.45203 0.3663,0.81799 0.81802,0.81799l4.90829,0l0,-1.63501zm0,3.26904l-4.0903,0c-0.45169,0 -0.81799,0.367 -0.81799,0.81799c0,0.45099 0.3663,0.81696 0.81799,0.81696l4.0903,0l0,-1.63495zm0,3.26996l-3.27222,0c-0.45169,0 -0.81808,0.36603 -0.81808,0.81799c0,0.45105 0.36639,0.81702 0.81808,0.81702l3.27222,0l0,-1.63501zm6.5441,-6.539l-4.90811,0l0,1.63501l4.90811,0c0.4519,0 0.81799,-0.36597 0.81799,-0.81799c0,-0.45099 -0.36609,-0.81702 -0.81799,-0.81702zm-0.8652,-2.75195l-3.74219,-3.74005c-0.38742,-0.38696 -0.38742,-1.01495 0,-1.40198c0.3876,-0.38702 1.01578,-0.38702 1.40329,0l3.7421,3.73901c0.38751,0.388 0.38751,1.01501 0,1.40302c-0.38748,0.38696 -1.01569,0.38696 -1.4032,0zm-9.7218,0c-0.38748,0.38696 -1.01581,0.38696 -1.40329,0c-0.3876,-0.388 -0.3876,-1.01501 0,-1.40302l3.742,-3.73901c0.38757,-0.38702 1.01578,-0.38702 1.40329,0c0.3876,0.38702 0.3876,1.01501 0,1.40198l-3.742,3.74005z"/>
</g>
</svg>