<svg width="18" height="18" xmlns="http://www.w3.org/2000/svg">
 <!-- Created with SVG-edit - http://svg-edit.googlecode.com/ -->
 <g>
  <title>Layer 1</title>
  <path d="m17.67022,17.22041l-0.46181,0.46219c-0.38231,0.38263 -1.00222,0.38263 -1.38453,0l-3.41399,-3.41637c-1.2845,0.91634 -2.85303,1.46122 -4.55198,1.46122c-4.3394,0 -7.8579,-3.52096 -7.8579,-7.86395c0,-4.34254 3.51851,-7.8635 7.8579,-7.8635c4.34029,0 7.8588,3.52096 7.8588,7.8635c0,1.69902 -0.54488,3.26931 -1.46046,4.5553l3.41399,3.41637c0.38232,0.38263 0.38232,1.0026 0,1.38523l-0.00001,0.00001l0.00001,0l0,0l-0.00002,0zm-9.81233,-14.97382c-3.09957,0 -5.61227,2.51478 -5.61227,5.61691c0,3.10258 2.5127,5.61736 5.61227,5.61736c4.28223,0 5.61317,-3.94829 5.61317,-5.61736c0,-3.10213 -2.51271,-5.61691 -5.61317,-5.61691z"/>
 </g>
</svg>