<svg xmlns="http://www.w3.org/2000/svg" x="0px" y="0px" viewBox="-303 398 20 110">

<g id="Layer_1" transform="translate(0, 5)">
	<linearGradient id="SVGID_3_" gradientUnits="userSpaceOnUse" x1="-156.2904" y1="749.968" x2="-156.2904" y2="765.3378" gradientTransform="matrix(0 1 -1 0 462.2312 604.1404)">
		<stop offset="0" style="stop-color:#2092BF"/>
		<stop offset="1" style="stop-color:#1F6A86"/>
	</linearGradient>

	<filter id="shadow" filterUnits="userSpaceOnUse" x="-303" y="393" width="100%" height="100%">
		<feGaussianBlur in="SourceAlpha" stdDeviation="2" result="blur"/>
		<feOffset in="blur" dx="0" dy="0" result="offsetBlr" />
		<feFlood flood-color="rgba(0,0,0,.8)"/>
		<feComposite operator="in" in2="offsetBlr" result="colBlur"/>
		<feMerge>
			<feMergeNode in="colBlur"/>
			<feMergeNode in="SourceGraphic"/>
		</feMerge>
	</filter>

	<path filter="url(#shadow)" fill="url(#SVGID_3_)" d="M-306,393.6c0,0.3,0.2,4.4,7.8,6.5c5.2,1.4,10.5,2.8,10.5,10v75.5c0,7.1-5.3,8.6-10.5,10 c-7.7,2.1-7.8,6.2-7.8,6.5C-306,499.2-306,396.5-306,393.6z"/>

	<path fill="#FFFFFF" d="M-291.9,471.1l-7.9-23l7.9-23.2c0.2-0.6,1-0.4,1,0.2v45.8C-290.9,471.5-291.7,471.6-291.9,471.1z"/>
	<path fill="#CCCBCB" d="M-291.4,424.4c0.3,0,0.5,0.2,0.5,0.5v45.8c0,0.3-0.3,0.5-0.5,0.5c-0.2,0-0.4-0.1-0.5-0.4l-7.9-23
 l7.9-23.2C-291.8,424.5-291.6,424.4-291.4,424.4 M-291.4,423.9L-291.4,423.9c-0.5,0-0.9,0.3-1,0.7l-7.9,23.2c0,0.1,0,0.2,0,0.3
 l7.9,23c0.1,0.4,0.5,0.7,1,0.7c0.6,0,1.1-0.5,1.1-1.1V425C-290.3,424.4-290.8,423.9-291.4,423.9L-291.4,423.9z"/>
</g>
</svg>