<?xml version="1.0" encoding="utf-8"?>
<svg version="1.1" xmlns="http://www.w3.org/2000/svg" xmlns:xlink="http://www.w3.org/1999/xlink" x="0px" y="0px"
	 viewBox="0 0 477 125" style="enable-background:new 0 0 477 125;" xml:space="preserve">
<style type="text/css">
	.st0{fill:url(#SVGID_1_);}
	.st1{fill:url(#SVGID_2_);}
	.st2{fill:none;stroke:#2B526E;stroke-width:2;stroke-miterlimit:10;filter: url(#shadow);}
	.st3{fill:url(#SVGID_3_);}
	.st4{fill:#AA4841;}
	.st5{fill:url(#SVGID_4_);}
	.st6{fill:none;stroke:#2B526E;stroke-width:1;}
	.st7{fill:#2E749D; filter: url(#inset-shadow--blue_text);}
	.st7s{fill:none;stroke:#2B526E;stroke-width:1;}
	.st8{fill:#BA4944;filter: url(#inset-shadow--red_text);}
	.st8s{fill:none;stroke:#773A3B;stroke-width:1;}
	.fig--blue{filter: url(#inset-shadow--blue_text);}
	.fig--red{filter: url(#inset-shadow--red);}
</style>
<g>
  <filter id='inset-shadow--red'>
        <!-- Shadow offset -->
        <feOffset dx='0' dy='0'/>
        <!-- Shadow blur -->
        <feGaussianBlur stdDeviation='3' result='offset-blur'/>
        <!-- Invert drop shadow to make an inset shadow -->
        <feComposite operator='out' in='SourceGraphic' in2='offset-blur' result='inverse'/>
        <!-- Cut color inside shadow -->
        <feFlood flood-color='#ff9999' flood-opacity='.6' result='color'/>
        <feComposite operator='in' in='color' in2='inverse' result='shadow'/>
        <!-- Placing shadow over element -->
        <feComposite operator='over' in='shadow' in2='SourceGraphic'/>
      </filter>
    <filter id='inset-shadow--red_text'>
        <!-- Shadow offset -->
        <feOffset dx='0' dy='0'/>
        <!-- Shadow blur -->
        <feGaussianBlur stdDeviation='1' result='offset-blur'/>
        <!-- Invert drop shadow to make an inset shadow -->
        <feComposite operator='out' in='SourceGraphic' in2='offset-blur' result='inverse'/>
        <!-- Cut color inside shadow -->
        <feFlood flood-color='#ff9999' flood-opacity='.8' result='color'/>
        <feComposite operator='in' in='color' in2='inverse' result='shadow'/>
        <!-- Placing shadow over element -->
        <feComposite operator='over' in='shadow' in2='SourceGraphic'/>
      </filter>
    <filter id='inset-shadow--blue'>
        <!-- Shadow offset -->
        <feOffset dx='0' dy='0'/>
        <!-- Shadow blur -->
        <feGaussianBlur stdDeviation='5' result='offset-blur'/>
        <!-- Invert drop shadow to make an inset shadow -->
        <feComposite operator='out' in='SourceGraphic' in2='offset-blur' result='inverse'/>
        <!-- Cut color inside shadow -->
        <feFlood flood-color='#99ccff' flood-opacity='.6' result='color'/>
        <feComposite operator='in' in='color' in2='inverse' result='shadow'/>
        <!-- Placing shadow over element -->
        <feComposite operator='over' in='shadow' in2='SourceGraphic'/>
      </filter>
    <filter id='inset-shadow--blue_text'>
        <!-- Shadow offset -->
        <feOffset dx='0' dy='0'/>
        <!-- Shadow blur -->
        <feGaussianBlur stdDeviation='2' result='offset-blur'/>
        <!-- Invert drop shadow to make an inset shadow -->
        <feComposite operator='out' in='SourceGraphic' in2='offset-blur' result='inverse'/>
        <!-- Cut color inside shadow -->
        <feFlood flood-color='#99ccff' flood-opacity='.8' result='color'/>
        <feComposite operator='in' in='color' in2='inverse' result='shadow'/>
        <!-- Placing shadow over element -->
        <feComposite operator='over' in='shadow' in2='SourceGraphic'/>
      </filter>
    <filter id="shadow" filterUnits="userSpaceOnUse" x="0" y="0"
              width="100%" height="100%">
        <feGaussianBlur in="SourceAlpha" stdDeviation="1" result="blur"/>
        <feOffset in="blur" dx="0" dy="1" result="offsetBlr" />
        <feFlood flood-color="rgba(0,0,0,.5)"/>
        <feComposite operator="in" in2="offsetBlr" result="colBlur"/>
        <feMerge>
          <feMergeNode in="colBlur"/>
          <feMergeNode in="SourceGraphic"/>
        </feMerge>
      </filter>
  </g>
<g>
	<g class="fig--blue">
		<linearGradient id="SVGID_1_" gradientUnits="userSpaceOnUse" x1="4.7997" y1="81.9438" x2="121.1742" y2="81.9438">
			<stop  offset="0" style="stop-color:#2E6C90"/>
			<stop  offset="1" style="stop-color:#407EA7"/>
		</linearGradient>
		<path class="st0" d="M4.8,48.7V120c0,2.2,1.8,4,4,4h108.4c2.2,0,4-1.8,4-4V39.9C100.7,44.6,82.8,51.3,67.5,60
			c-1.7,1-0.9,1.1-3,0.4C44.6,54,24.7,50.1,4.8,48.7z"/>
		<linearGradient id="SVGID_2_" gradientUnits="userSpaceOnUse" x1="104.7667" y1="71.4159" x2="130.1089" y2="59.5987">
			<stop  offset="0" style="stop-color:#4487B3;stop-opacity:0"/>
			<stop  offset="1" style="stop-color:#4487B3"/>
		</linearGradient>
		<path class="st1" d="M92.7,48.4C103.4,62,113,76.6,121.2,92.5c0,0,0-52.6,0-52.6l0,0c-10.2,2.4-19.8,5.2-28.8,8.6"/>
	</g>
	<g>
		<path class="st2" d="M121.2,39.3C100.7,44,82.8,50.7,67.5,59.3c-1.7,1-0.9,1.1-3,0.4C44.6,53.4,24.7,49.5,4.8,48.1"/>
		<g class="fig--red">
			<linearGradient id="SVGID_3_" gradientUnits="userSpaceOnUse" x1="8.5829" y1="56.0939" x2="112.6887" y2="-4.1752">
				<stop  offset="0" style="stop-color:#8D352B"/>
				<stop  offset="0.4605" style="stop-color:#933933"/>
				<stop  offset="0.7319" style="stop-color:#A1423C"/>
				<stop  offset="1" style="stop-color:#AA4841"/>
			</linearGradient>
			<path class="st3" d="M64.5,60.4C44.6,54,24.7,50.1,4.8,48.7c-1.1-0.1-1.5-0.2-1.6-1.8c0,0-2.3-34.5-2.3-34.5
				c0-0.3-0.3-1.4,1.2-1.4c21.3,1.5,42.2,5.2,62.5,11.5c1.8,0.5,1.1,0.6,3.3-0.5c16-8.2,35.4-14.9,58.2-20.2
				c1.6-0.3,1.9,0.2,1.8,1.1c-1.8,11.8-3.6,23.5-5.4,35.3c-0.1,1-0.2,1.3-1.3,1.6C100.7,44.6,82.8,51.3,67.5,60
				C65.8,61,66.7,61,64.5,60.4z"/>
			<path class="st4" d="M79,16.8c11.9,5.6,25.3,13.7,39.7,23.7c0.8-0.2,1.6-0.4,2.5-0.6c1.1-0.3,1.1-0.6,1.3-1.6
				c1.8-11.8,3.6-23.5,5.4-35.3c0.1-0.9-0.2-1.5-1.8-1.1C108.3,6,92.7,11,79,16.8z"/>
			<linearGradient id="SVGID_4_" gradientUnits="userSpaceOnUse" x1="61.1429" y1="64.5739" x2="38.4331" y2="40.1765">
				<stop  offset="0" style="stop-color:#8A3934"/>
				<stop  offset="1" style="stop-color:#8A3934;stop-opacity:0"/>
			</linearGradient>
			<path class="st5" d="M72.2,57.4c-18.4-21.5-48.5,3.5-7.7-34.8C44.2,16.3,23.4,12.6,2,11.1c-1.4-0.1-1.2,1.1-1.2,1.4
				c0,0,2.3,34.5,2.3,34.5c0.1,1.5,0.5,1.7,1.6,1.8c19.9,1.4,39.8,5.3,59.7,11.6c2.2,0.7,1.3,0.6,3-0.4
				C69.1,59.1,70.6,58.2,72.2,57.4"/>
		</g>
	</g>
	<path class="st6" d="M64.5,60.4C44.6,54,24.7,50.1,4.8,48.7c-1.1-0.1-1.5-0.2-1.6-1.8c0,0-2.3-34.5-2.3-34.5c0-0.3-0.3-1.4,1.2-1.4
		c21.3,1.5,42.2,5.2,62.5,11.5c1.8,0.5,1.1,0.6,3.3-0.5c16-8.2,35.4-14.9,58.2-20.2c1.6-0.3,1.9,0.2,1.8,1.1
		c-1.8,11.8-3.6,23.5-5.4,35.3c-0.1,1-0.2,1.3-1.3,1.6C100.7,44.6,82.8,51.3,67.5,60C65.8,61,66.7,61,64.5,60.4z M4.8,48.7V120
		c0,2.2,1.8,4,4,4h108.4c2.2,0,4-1.8,4-4V39.9"/>
</g>
<g>
	<path class="st7" d="M158.5,58.8c1.9,15.2,12.7,20.9,34.8,14.8c2.8,1.4,3.4,4.1,3,7.3c-18.7,9.3-49.8,4.1-49-25
		c0-37.8,56.3-37.9,53,0.7c0.1,2.6-2,2.3-2.2,2.3L158.5,58.8z M188.9,50.6c-2.5-20.5-26.9-17.5-30,0H188.9z"/>
	<path class="st7" d="M267.1,56.5c0,15.9-13.2,28.8-29.4,28.8s-29.4-12.9-29.4-28.8s13.2-28.8,29.4-28.8S267.1,40.6,267.1,56.5z
		 M237.8,36.4c-9.5,0-17.1,9.1-17.1,20.3s7.7,20.3,17.1,20.3s17.1-9.1,17.1-20.3S247.2,36.4,237.8,36.4z"/>
	<path class="st7" d="M291.6,83.4l0.1-26.9c-0.1-8.9,6.1-17,16.9-17c2.2-0.3,1.4-10.7,0-11.1c-1.2-0.7-16.3,0.9-18.6,11.2
		c0,0,0.1-7.4,0-9.4c0-1.2-10.9-1.1-10.8,0v52.9C279.2,86,291.6,85.8,291.6,83.4z"/>
	<path class="st7" d="M320.4,27.7l22.6,0c36,1.6,37.4,55.6,0,57.5c0,0-14.2-0.1-22.6-0.1c-1.1,0.1-3-1.3-3-3.2V31.8
		C317.2,29.7,319.2,27.5,320.4,27.7z M329.5,36.6v39.7c0,1.2,0.8,1.9,1.4,1.9h9.6c24.3,0,24.5-42.7,0-42.7h-9.8
		C329.5,35.3,329.5,35.3,329.5,36.6z"/>
	<path class="st7" d="M390.6,58.8c1.9,15.2,12.7,20.9,34.8,14.8c2.8,1.4,3.4,4.1,3,7.3c-18.7,9.3-49.8,4.1-49-25
		c0-37.8,56.3-37.9,53,0.7c0.1,2.6-2,2.3-2.2,2.3L390.6,58.8z M421,50.6c-2.5-20.5-26.9-17.5-30,0H421z"/>
	<path class="st7" d="M456.4,83.4l0.1-26.9c-0.1-8.9,6.1-17,16.9-17c2.2-0.3,1.4-10.7,0-11.1c-1.2-0.7-16.3,0.9-18.6,11.2
		c0,0,0.1-7.4,0-9.4c0-1.2-10.9-1.1-10.8,0v52.9C444,86,456.4,85.8,456.4,83.4z"/>
</g>
	<g>
	<path class="st7s" d="M158.5,58.8c1.9,15.2,12.7,20.9,34.8,14.8c2.8,1.4,3.4,4.1,3,7.3c-18.7,9.3-49.8,4.1-49-25
		c0-37.8,56.3-37.9,53,0.7c0.1,2.6-2,2.3-2.2,2.3L158.5,58.8z M188.9,50.6c-2.5-20.5-26.9-17.5-30,0H188.9z"/>
	<path class="st7s" d="M267.1,56.5c0,15.9-13.2,28.8-29.4,28.8s-29.4-12.9-29.4-28.8s13.2-28.8,29.4-28.8S267.1,40.6,267.1,56.5z
		 M237.8,36.4c-9.5,0-17.1,9.1-17.1,20.3s7.7,20.3,17.1,20.3s17.1-9.1,17.1-20.3S247.2,36.4,237.8,36.4z"/>
	<path class="st7s" d="M291.6,83.4l0.1-26.9c-0.1-8.9,6.1-17,16.9-17c2.2-0.3,1.4-10.7,0-11.1c-1.2-0.7-16.3,0.9-18.6,11.2
		c0,0,0.1-7.4,0-9.4c0-1.2-10.9-1.1-10.8,0v52.9C279.2,86,291.6,85.8,291.6,83.4z"/>
	<path class="st7s" d="M320.4,27.7l22.6,0c36,1.6,37.4,55.6,0,57.5c0,0-14.2-0.1-22.6-0.1c-1.1,0.1-3-1.3-3-3.2V31.8
		C317.2,29.7,319.2,27.5,320.4,27.7z M329.5,36.6v39.7c0,1.2,0.8,1.9,1.4,1.9h9.6c24.3,0,24.5-42.7,0-42.7h-9.8
		C329.5,35.3,329.5,35.3,329.5,36.6z"/>
	<path class="st7s" d="M390.6,58.8c1.9,15.2,12.7,20.9,34.8,14.8c2.8,1.4,3.4,4.1,3,7.3c-18.7,9.3-49.8,4.1-49-25
		c0-37.8,56.3-37.9,53,0.7c0.1,2.6-2,2.3-2.2,2.3L390.6,58.8z M421,50.6c-2.5-20.5-26.9-17.5-30,0H421z"/>
	<path class="st7s" d="M456.4,83.4l0.1-26.9c-0.1-8.9,6.1-17,16.9-17c2.2-0.3,1.4-10.7,0-11.1c-1.2-0.7-16.3,0.9-18.6,11.2
		c0,0,0.1-7.4,0-9.4c0-1.2-10.9-1.1-10.8,0v52.9C444,86,456.4,85.8,456.4,83.4z"/>
</g>
<g>
	<path class="st8" d="M391.4,93.4v27.4c0,2,6.1,1.8,6.2,0l0-16.1c0-8.9,13.7-10.1,13.7-0.1c0,0-0.1,9.4-0.1,16.3
		c0.1,2.2,6.9,2,6.9,0l0.2-16.2c0.1-8.9,13.2-9.8,13.1,0c0,0-0.1,9.5-0.1,16.3c0,2.1,6.1,1.6,6.4,0l0.1-16.2
		c0-12.6-11.2-19.4-21.6-8c-3.8-8.3-16.2-7.1-18.8,0.1v-3.2C397.5,90.7,391.4,90.4,391.4,93.4z"/>
	<path class="st8" d="M340.8,121.9l0-14.8c0-4.9,3.3-9.4,9.3-9.4c1.2-0.2,0.8-5.9,0-6.1c-0.7-0.4-8.9,0.5-10.2,6.2c0,0,0-4.1,0-5.2
		c0-0.7-6-0.6-5.9,0v29.1C334,123.3,340.8,123.2,340.8,121.9z"/>
	<path class="st8" d="M385.5,107.2c0,8.7-7.4,15.8-16.5,15.8s-16.5-7.1-16.5-15.8s7.4-15.8,16.5-15.8S385.5,98.5,385.5,107.2z
		 M369,96.2c-5.3,0-9.6,5-9.6,11.1c0,6.1,4.3,11.1,9.6,11.1s9.6-5,9.6-11.1C378.6,101.1,374.3,96.2,369,96.2z"/>
	<path class="st8" d="M477,107.2c0,8.7-7.4,15.8-16.5,15.8s-16.5-7.1-16.5-15.8s7.4-15.8,16.5-15.8S477,98.5,477,107.2z M460.5,96.2
		c-5.3,0-9.6,5-9.6,11.1c0,6.1,4.3,11.1,9.6,11.1s9.6-5,9.6-11.1C470.1,101.1,465.8,96.2,460.5,96.2z"/>
	<path class="st8" d="M304.4,92.6c0-0.5,0.4-1.1,1-1.1h10.1c17.1,0,17.6,19.6,0,19.6h-4v10.2c0,1.6-7.1,1.6-7.1,0V92.6z M312.6,95.6
		c-0.6,0-1.1,0.5-1.1,1v9.3c0,0.6,0.3,1,1.1,1C324.3,107,324.8,95.6,312.6,95.6z"/>
</g>
	<g>
	<path class="st8s" d="M391.4,93.4v27.4c0,2,6.1,1.8,6.2,0l0-16.1c0-8.9,13.7-10.1,13.7-0.1c0,0-0.1,9.4-0.1,16.3
		c0.1,2.2,6.9,2,6.9,0l0.2-16.2c0.1-8.9,13.2-9.8,13.1,0c0,0-0.1,9.5-0.1,16.3c0,2.1,6.1,1.6,6.4,0l0.1-16.2
		c0-12.6-11.2-19.4-21.6-8c-3.8-8.3-16.2-7.1-18.8,0.1v-3.2C397.5,90.7,391.4,90.4,391.4,93.4z"/>
	<path class="st8s" d="M340.8,121.9l0-14.8c0-4.9,3.3-9.4,9.3-9.4c1.2-0.2,0.8-5.9,0-6.1c-0.7-0.4-8.9,0.5-10.2,6.2c0,0,0-4.1,0-5.2
		c0-0.7-6-0.6-5.9,0v29.1C334,123.3,340.8,123.2,340.8,121.9z"/>
	<path class="st8s" d="M385.5,107.2c0,8.7-7.4,15.8-16.5,15.8s-16.5-7.1-16.5-15.8s7.4-15.8,16.5-15.8S385.5,98.5,385.5,107.2z
		 M369,96.2c-5.3,0-9.6,5-9.6,11.1c0,6.1,4.3,11.1,9.6,11.1s9.6-5,9.6-11.1C378.6,101.1,374.3,96.2,369,96.2z"/>
	<path class="st8s" d="M477,107.2c0,8.7-7.4,15.8-16.5,15.8s-16.5-7.1-16.5-15.8s7.4-15.8,16.5-15.8S477,98.5,477,107.2z M460.5,96.2
		c-5.3,0-9.6,5-9.6,11.1c0,6.1,4.3,11.1,9.6,11.1s9.6-5,9.6-11.1C470.1,101.1,465.8,96.2,460.5,96.2z"/>
	<path class="st8s" d="M304.4,92.6c0-0.5,0.4-1.1,1-1.1h10.1c17.1,0,17.6,19.6,0,19.6h-4v10.2c0,1.6-7.1,1.6-7.1,0V92.6z M312.6,95.6
		c-0.6,0-1.1,0.5-1.1,1v9.3c0,0.6,0.3,1,1.1,1C324.3,107,324.8,95.6,312.6,95.6z"/>
</g>
</svg>
